<mxfile host="65bd71144e">
    <diagram id="4H3-sxqV6GKaa_Chw3TV" name="Page-1">
        <mxGraphModel dx="1130" dy="792" grid="1" gridSize="10" guides="1" tooltips="1" connect="1" arrows="1" fold="1" page="1" pageScale="1" pageWidth="850" pageHeight="1100" background="#ffffff" math="0" shadow="1">
            <root>
                <mxCell id="0"/>
                <mxCell id="1" parent="0"/>
                <mxCell id="11" style="edgeStyle=none;html=1;fillColor=#eeeeee;strokeColor=#36393d;rounded=0;" edge="1" parent="1" source="7">
                    <mxGeometry relative="1" as="geometry">
                        <mxPoint x="320" y="330" as="targetPoint"/>
                    </mxGeometry>
                </mxCell>
                <mxCell id="7" value="Actor" style="shape=umlActor;verticalLabelPosition=bottom;verticalAlign=top;html=1;fillColor=#eeeeee;strokeColor=#36393d;rounded=0;" vertex="1" parent="1">
                    <mxGeometry x="40" y="250" width="60" height="110" as="geometry"/>
                </mxCell>
                <mxCell id="13" style="edgeStyle=none;html=1;entryX=1;entryY=0.25;entryDx=0;entryDy=0;fillColor=#f9f7ed;strokeColor=#36393d;rounded=0;" edge="1" parent="1" source="12">
                    <mxGeometry relative="1" as="geometry">
                        <mxPoint x="570" y="255" as="targetPoint"/>
                    </mxGeometry>
                </mxCell>
                <mxCell id="14" style="edgeStyle=none;html=1;fillColor=#f9f7ed;strokeColor=#36393d;rounded=0;" edge="1" parent="1" source="12">
                    <mxGeometry relative="1" as="geometry">
                        <mxPoint x="570" y="294.9553571428571" as="targetPoint"/>
                    </mxGeometry>
                </mxCell>
                <mxCell id="12" value="Actor" style="shape=umlActor;verticalLabelPosition=bottom;verticalAlign=top;html=1;fillColor=#f9f7ed;strokeColor=#36393d;rounded=0;" vertex="1" parent="1">
                    <mxGeometry x="760" y="227.5" width="50" height="105" as="geometry"/>
                </mxCell>
                <mxCell id="16" value="icon" style="ellipse;fillColor=#eeeeee;strokeColor=#36393d;" vertex="1" parent="1">
                    <mxGeometry x="370" y="220" width="130" height="70" as="geometry"/>
                </mxCell>
            </root>
        </mxGraphModel>
    </diagram>
</mxfile>